<svg width="398" height="170" viewBox="0 0 398 170" fill="none" xmlns="http://www.w3.org/2000/svg">
<path d="M119.889 24.1399H20.79V155.659H119.889V24.1399Z" fill="url(#paint0_linear_49_18242)"/>
<path d="M278.111 155.66H377.21V24.1409H278.111V155.66Z" fill="url(#paint1_linear_49_18242)"/>
<path d="M64.278 49.0999V44.0199C64.278 42.6699 63.742 41.3699 62.788 40.4199C61.834 39.4699 60.54 38.9299 59.191 38.9299H49.017C47.668 38.9299 46.374 39.4699 45.42 40.4199C44.466 41.3699 43.93 42.6699 43.93 44.0199V49.0999" fill="#262626"/>
<path d="M64.278 49.0999V44.0199C64.278 42.6699 63.742 41.3699 62.788 40.4199C61.834 39.4699 60.54 38.9299 59.191 38.9299H49.017C47.668 38.9299 46.374 39.4699 45.42 40.4199C44.466 41.3699 43.93 42.6699 43.93 44.0199V49.0999H64.278Z" stroke="#3D3D3D" stroke-linecap="round" stroke-linejoin="round"/>
<path d="M54.104 36.1199C56.914 36.1199 59.191 33.8499 59.191 31.0399C59.191 28.2299 56.914 25.95 54.104 25.95C51.295 25.95 49.017 28.2299 49.017 31.0399C49.017 33.8499 51.295 36.1199 54.104 36.1199Z" fill="#262626" stroke="#3D3D3D" stroke-linecap="round" stroke-linejoin="round"/>
<path d="M102.439 49.0999V44.0199C102.439 42.6699 101.903 41.3699 100.949 40.4199C99.995 39.4699 98.701 38.9299 97.352 38.9299H87.178C85.829 38.9299 84.535 39.4699 83.581 40.4199C82.627 41.3699 82.091 42.6699 82.091 44.0199V49.0999" fill="#262626"/>
<path d="M102.439 49.0999V44.0199C102.439 42.6699 101.903 41.3699 100.949 40.4199C99.995 39.4699 98.701 38.9299 97.352 38.9299H87.178C85.829 38.9299 84.535 39.4699 83.581 40.4199C82.627 41.3699 82.091 42.6699 82.091 44.0199V49.0999H102.439Z" stroke="#3D3D3D" stroke-linecap="round" stroke-linejoin="round"/>
<path d="M92.264 36.1199C95.074 36.1199 97.351 33.8499 97.351 31.0399C97.351 28.2299 95.074 25.95 92.264 25.95C89.455 25.95 87.177 28.2299 87.177 31.0399C87.177 33.8499 89.455 36.1199 92.264 36.1199Z" fill="#262626" stroke="#3D3D3D" stroke-linecap="round" stroke-linejoin="round"/>
<path d="M140.6 49.0999V44.0199C140.6 42.6699 140.064 41.3699 139.11 40.4199C138.156 39.4699 136.862 38.9299 135.513 38.9299H125.339C123.99 38.9299 122.696 39.4699 121.742 40.4199C120.788 41.3699 120.252 42.6699 120.252 44.0199V49.0999" fill="#262626"/>
<path d="M140.6 49.0999V44.0199C140.6 42.6699 140.064 41.3699 139.11 40.4199C138.156 39.4699 136.862 38.9299 135.513 38.9299H125.339C123.99 38.9299 122.696 39.4699 121.742 40.4199C120.788 41.3699 120.252 42.6699 120.252 44.0199V49.0999H140.6Z" stroke="#3D3D3D" stroke-linecap="round" stroke-linejoin="round"/>
<path d="M130.426 36.1199C133.236 36.1199 135.513 33.8499 135.513 31.0399C135.513 28.2299 133.236 25.95 130.426 25.95C127.617 25.95 125.339 28.2299 125.339 31.0399C125.339 33.8499 127.617 36.1199 130.426 36.1199Z" fill="#262626" stroke="#3D3D3D" stroke-linecap="round" stroke-linejoin="round"/>
<path d="M178.761 49.0999V44.0199C178.761 42.6699 178.225 41.3699 177.271 40.4199C176.317 39.4699 175.023 38.9299 173.674 38.9299H163.5C162.151 38.9299 160.857 39.4699 159.903 40.4199C158.949 41.3699 158.413 42.6699 158.413 44.0199V49.0999" fill="#262626"/>
<path d="M178.761 49.0999V44.0199C178.761 42.6699 178.225 41.3699 177.271 40.4199C176.317 39.4699 175.023 38.9299 173.674 38.9299H163.5C162.151 38.9299 160.857 39.4699 159.903 40.4199C158.949 41.3699 158.413 42.6699 158.413 44.0199V49.0999H178.761Z" stroke="#3D3D3D" stroke-linecap="round" stroke-linejoin="round"/>
<path d="M168.587 36.1199C171.396 36.1199 173.674 33.8499 173.674 31.0399C173.674 28.2299 171.396 25.95 168.587 25.95C165.777 25.95 163.5 28.2299 163.5 31.0399C163.5 33.8499 165.777 36.1199 168.587 36.1199Z" fill="#262626" stroke="#3D3D3D" stroke-linecap="round" stroke-linejoin="round"/>
<path d="M273.749 49.0999V44.0199C273.749 42.6699 273.213 41.3699 272.259 40.4199C271.305 39.4699 270.012 38.9299 268.662 38.9299H258.488C257.139 38.9299 255.845 39.4699 254.891 40.4199C253.937 41.3699 253.401 42.6699 253.401 44.0199V49.0999" fill="#262626"/>
<path d="M273.749 49.0999V44.0199C273.749 42.6699 273.213 41.3699 272.259 40.4199C271.305 39.4699 270.012 38.9299 268.662 38.9299H258.488C257.139 38.9299 255.845 39.4699 254.891 40.4199C253.937 41.3699 253.401 42.6699 253.401 44.0199V49.0999H273.749Z" stroke="#3D3D3D" stroke-linecap="round" stroke-linejoin="round"/>
<path d="M263.575 36.1199C266.384 36.1199 268.662 33.8499 268.662 31.0399C268.662 28.2299 266.384 25.95 263.575 25.95C260.765 25.95 258.488 28.2299 258.488 31.0399C258.488 33.8499 260.765 36.1199 263.575 36.1199Z" fill="#262626" stroke="#3D3D3D" stroke-linecap="round" stroke-linejoin="round"/>
<path d="M311.91 49.0999V44.0199C311.91 42.6699 311.374 41.3699 310.42 40.4199C309.466 39.4699 308.172 38.9299 306.823 38.9299H296.649C295.3 38.9299 294.006 39.4699 293.052 40.4199C292.098 41.3699 291.562 42.6699 291.562 44.0199V49.0999" fill="#262626"/>
<path d="M311.91 49.0999V44.0199C311.91 42.6699 311.374 41.3699 310.42 40.4199C309.466 39.4699 308.172 38.9299 306.823 38.9299H296.649C295.3 38.9299 294.006 39.4699 293.052 40.4199C292.098 41.3699 291.562 42.6699 291.562 44.0199V49.0999H311.91Z" stroke="#3D3D3D" stroke-linecap="round" stroke-linejoin="round"/>
<path d="M301.736 36.1199C304.546 36.1199 306.823 33.8499 306.823 31.0399C306.823 28.2299 304.546 25.95 301.736 25.95C298.927 25.95 296.649 28.2299 296.649 31.0399C296.649 33.8499 298.927 36.1199 301.736 36.1199Z" fill="#262626" stroke="#3D3D3D" stroke-linecap="round" stroke-linejoin="round"/>
<path d="M235.588 49.0999V44.0199C235.588 42.6699 235.052 41.3699 234.098 40.4199C233.144 39.4699 231.85 38.9299 230.501 38.9299H220.327C218.978 38.9299 217.684 39.4699 216.73 40.4199C215.776 41.3699 215.24 42.6699 215.24 44.0199V49.0999" fill="#262626"/>
<path d="M235.588 49.0999V44.0199C235.588 42.6699 235.052 41.3699 234.098 40.4199C233.144 39.4699 231.85 38.9299 230.501 38.9299H220.327C218.978 38.9299 217.684 39.4699 216.73 40.4199C215.776 41.3699 215.24 42.6699 215.24 44.0199V49.0999H235.588Z" stroke="#3D3D3D" stroke-linecap="round" stroke-linejoin="round"/>
<path d="M225.415 36.1199C228.224 36.1199 230.502 33.8499 230.502 31.0399C230.502 28.2299 228.224 25.95 225.415 25.95C222.605 25.95 220.328 28.2299 220.328 31.0399C220.328 33.8499 222.605 36.1199 225.415 36.1199Z" fill="#262626" stroke="#3D3D3D" stroke-linecap="round" stroke-linejoin="round"/>
<path d="M350.071 49.0999V44.0199C350.071 42.6699 349.535 41.3699 348.581 40.4199C347.627 39.4699 346.333 38.9299 344.984 38.9299H334.81C333.46 38.9299 332.167 39.4699 331.213 40.4199C330.259 41.3699 329.723 42.6699 329.723 44.0199V49.0999" fill="#262626"/>
<path d="M350.071 49.0999V44.0199C350.071 42.6699 349.535 41.3699 348.581 40.4199C347.627 39.4699 346.333 38.9299 344.984 38.9299H334.81C333.46 38.9299 332.167 39.4699 331.213 40.4199C330.259 41.3699 329.723 42.6699 329.723 44.0199V49.0999H350.071Z" stroke="#3D3D3D" stroke-linecap="round" stroke-linejoin="round"/>
<path d="M339.898 36.1199C342.707 36.1199 344.985 33.8499 344.985 31.0399C344.985 28.2299 342.707 25.95 339.898 25.95C337.088 25.95 334.811 28.2299 334.811 31.0399C334.811 33.8499 337.088 36.1199 339.898 36.1199Z" fill="#262626" stroke="#3D3D3D" stroke-linecap="round" stroke-linejoin="round"/>
<path d="M64.278 131.41V126.32C64.278 124.97 63.742 123.68 62.788 122.73C61.834 121.77 60.54 121.24 59.191 121.24H49.017C47.668 121.24 46.374 121.77 45.42 122.73C44.466 123.68 43.93 124.97 43.93 126.32V131.41" fill="#262626"/>
<path d="M64.278 131.41V126.32C64.278 124.97 63.742 123.68 62.788 122.73C61.834 121.77 60.54 121.24 59.191 121.24H49.017C47.668 121.24 46.374 121.77 45.42 122.73C44.466 123.68 43.93 124.97 43.93 126.32V131.41H64.278Z" stroke="#3D3D3D" stroke-linecap="round" stroke-linejoin="round"/>
<path d="M54.104 118.43C56.914 118.43 59.191 116.15 59.191 113.34C59.191 110.53 56.914 108.26 54.104 108.26C51.295 108.26 49.017 110.53 49.017 113.34C49.017 116.15 51.295 118.43 54.104 118.43Z" fill="#262626" stroke="#3D3D3D" stroke-linecap="round" stroke-linejoin="round"/>
<path d="M102.439 131.41V126.32C102.439 124.97 101.903 123.68 100.949 122.73C99.995 121.77 98.701 121.24 97.352 121.24H87.178C85.829 121.24 84.535 121.77 83.581 122.73C82.627 123.68 82.091 124.97 82.091 126.32V131.41" fill="#262626"/>
<path d="M102.439 131.41V126.32C102.439 124.97 101.903 123.68 100.949 122.73C99.995 121.77 98.701 121.24 97.352 121.24H87.178C85.829 121.24 84.535 121.77 83.581 122.73C82.627 123.68 82.091 124.97 82.091 126.32V131.41H102.439Z" stroke="#3D3D3D" stroke-linecap="round" stroke-linejoin="round"/>
<path d="M92.264 118.43C95.074 118.43 97.351 116.15 97.351 113.34C97.351 110.53 95.074 108.26 92.264 108.26C89.455 108.26 87.177 110.53 87.177 113.34C87.177 116.15 89.455 118.43 92.264 118.43Z" fill="#262626" stroke="#3D3D3D" stroke-linecap="round" stroke-linejoin="round"/>
<path d="M140.6 131.41V126.32C140.6 124.97 140.064 123.68 139.11 122.73C138.156 121.77 136.862 121.24 135.513 121.24H125.339C123.99 121.24 122.696 121.77 121.742 122.73C120.788 123.68 120.252 124.97 120.252 126.32V131.41" fill="#262626"/>
<path d="M140.6 131.41V126.32C140.6 124.97 140.064 123.68 139.11 122.73C138.156 121.77 136.862 121.24 135.513 121.24H125.339C123.99 121.24 122.696 121.77 121.742 122.73C120.788 123.68 120.252 124.97 120.252 126.32V131.41H140.6Z" stroke="#3D3D3D" stroke-linecap="round" stroke-linejoin="round"/>
<path d="M130.426 118.43C133.236 118.43 135.513 116.15 135.513 113.34C135.513 110.53 133.236 108.26 130.426 108.26C127.617 108.26 125.339 110.53 125.339 113.34C125.339 116.15 127.617 118.43 130.426 118.43Z" fill="#262626" stroke="#3D3D3D" stroke-linecap="round" stroke-linejoin="round"/>
<path d="M178.761 131.41V126.32C178.761 124.97 178.225 123.68 177.271 122.73C176.317 121.77 175.023 121.24 173.674 121.24H163.5C162.151 121.24 160.857 121.77 159.903 122.73C158.949 123.68 158.413 124.97 158.413 126.32V131.41" fill="#262626"/>
<path d="M178.761 131.41V126.32C178.761 124.97 178.225 123.68 177.271 122.73C176.317 121.77 175.023 121.24 173.674 121.24H163.5C162.151 121.24 160.857 121.77 159.903 122.73C158.949 123.68 158.413 124.97 158.413 126.32V131.41H178.761Z" stroke="#3D3D3D" stroke-linecap="round" stroke-linejoin="round"/>
<path d="M168.587 118.43C171.396 118.43 173.674 116.15 173.674 113.34C173.674 110.53 171.396 108.26 168.587 108.26C165.777 108.26 163.5 110.53 163.5 113.34C163.5 116.15 165.777 118.43 168.587 118.43Z" fill="#262626" stroke="#3D3D3D" stroke-linecap="round" stroke-linejoin="round"/>
<path d="M273.749 131.41V126.32C273.749 124.97 273.213 123.68 272.259 122.73C271.305 121.77 270.012 121.24 268.662 121.24H258.488C257.139 121.24 255.845 121.77 254.891 122.73C253.937 123.68 253.401 124.97 253.401 126.32V131.41" fill="#262626"/>
<path d="M273.749 131.41V126.32C273.749 124.97 273.213 123.68 272.259 122.73C271.305 121.77 270.012 121.24 268.662 121.24H258.488C257.139 121.24 255.845 121.77 254.891 122.73C253.937 123.68 253.401 124.97 253.401 126.32V131.41H273.749Z" stroke="#3D3D3D" stroke-linecap="round" stroke-linejoin="round"/>
<path d="M263.575 118.43C266.384 118.43 268.662 116.15 268.662 113.34C268.662 110.53 266.384 108.26 263.575 108.26C260.765 108.26 258.488 110.53 258.488 113.34C258.488 116.15 260.765 118.43 263.575 118.43Z" fill="#262626" stroke="#3D3D3D" stroke-linecap="round" stroke-linejoin="round"/>
<path d="M311.91 131.41V126.32C311.91 124.97 311.374 123.68 310.42 122.73C309.466 121.77 308.172 121.24 306.823 121.24H296.649C295.3 121.24 294.006 121.77 293.052 122.73C292.098 123.68 291.562 124.97 291.562 126.32V131.41" fill="#262626"/>
<path d="M311.91 131.41V126.32C311.91 124.97 311.374 123.68 310.42 122.73C309.466 121.77 308.172 121.24 306.823 121.24H296.649C295.3 121.24 294.006 121.77 293.052 122.73C292.098 123.68 291.562 124.97 291.562 126.32V131.41H311.91Z" stroke="#3D3D3D" stroke-linecap="round" stroke-linejoin="round"/>
<path d="M301.736 118.43C304.546 118.43 306.823 116.15 306.823 113.34C306.823 110.53 304.546 108.26 301.736 108.26C298.927 108.26 296.649 110.53 296.649 113.34C296.649 116.15 298.927 118.43 301.736 118.43Z" fill="#262626" stroke="#3D3D3D" stroke-linecap="round" stroke-linejoin="round"/>
<path d="M235.588 131.41V126.32C235.588 124.97 235.052 123.68 234.098 122.73C233.144 121.77 231.85 121.24 230.501 121.24H220.327C218.978 121.24 217.684 121.77 216.73 122.73C215.776 123.68 215.24 124.97 215.24 126.32V131.41" fill="#262626"/>
<path d="M235.588 131.41V126.32C235.588 124.97 235.052 123.68 234.098 122.73C233.144 121.77 231.85 121.24 230.501 121.24H220.327C218.978 121.24 217.684 121.77 216.73 122.73C215.776 123.68 215.24 124.97 215.24 126.32V131.41H235.588Z" stroke="#3D3D3D" stroke-linecap="round" stroke-linejoin="round"/>
<path d="M225.415 118.43C228.224 118.43 230.502 116.15 230.502 113.34C230.502 110.53 228.224 108.26 225.415 108.26C222.605 108.26 220.328 110.53 220.328 113.34C220.328 116.15 222.605 118.43 225.415 118.43Z" fill="#262626" stroke="#3D3D3D" stroke-linecap="round" stroke-linejoin="round"/>
<path d="M350.071 131.41V126.32C350.071 124.97 349.535 123.68 348.581 122.73C347.627 121.77 346.333 121.24 344.984 121.24H334.81C333.46 121.24 332.167 121.77 331.213 122.73C330.259 123.68 329.723 124.97 329.723 126.32V131.41" fill="#262626"/>
<path d="M350.071 131.41V126.32C350.071 124.97 349.535 123.68 348.581 122.73C347.627 121.77 346.333 121.24 344.984 121.24H334.81C333.46 121.24 332.167 121.77 331.213 122.73C330.259 123.68 329.723 124.97 329.723 126.32V131.41H350.071Z" stroke="#3D3D3D" stroke-linecap="round" stroke-linejoin="round"/>
<path d="M339.898 118.43C342.707 118.43 344.985 116.15 344.985 113.34C344.985 110.53 342.707 108.26 339.898 108.26C337.088 108.26 334.811 110.53 334.811 113.34C334.811 116.15 337.088 118.43 339.898 118.43Z" fill="#262626" stroke="#3D3D3D" stroke-linecap="round" stroke-linejoin="round"/>
<path d="M43.864 90.26V85.17C43.864 83.82 43.328 82.5301 42.374 81.5701C41.42 80.6201 40.126 80.0801 38.777 80.0801H28.603C27.254 80.0801 25.96 80.6201 25.006 81.5701C24.052 82.5301 23.516 83.82 23.516 85.17V90.26" fill="#262626"/>
<path d="M43.864 90.26V85.17C43.864 83.82 43.328 82.5301 42.374 81.5701C41.42 80.6201 40.126 80.0801 38.777 80.0801H28.603C27.254 80.0801 25.96 80.6201 25.006 81.5701C24.052 82.5301 23.516 83.82 23.516 85.17V90.26H43.864Z" stroke="#3D3D3D" stroke-linecap="round" stroke-linejoin="round"/>
<path d="M33.691 77.2799C36.5 77.2799 38.778 74.9999 38.778 72.1899C38.778 69.3799 36.5 67.0999 33.691 67.0999C30.881 67.0999 28.604 69.3799 28.604 72.1899C28.604 74.9999 30.881 77.2799 33.691 77.2799Z" fill="#262626" stroke="#3D3D3D" stroke-linecap="round" stroke-linejoin="round"/>
<path d="M84.212 90.26V85.17C84.212 83.82 83.676 82.5301 82.722 81.5701C81.768 80.6201 80.474 80.0801 79.125 80.0801H68.951C67.602 80.0801 66.308 80.6201 65.354 81.5701C64.4 82.5301 63.864 83.82 63.864 85.17V90.26" fill="#262626"/>
<path d="M84.212 90.26V85.17C84.212 83.82 83.676 82.5301 82.722 81.5701C81.768 80.6201 80.474 80.0801 79.125 80.0801H68.951C67.602 80.0801 66.308 80.6201 65.354 81.5701C64.4 82.5301 63.864 83.82 63.864 85.17V90.26H84.212Z" stroke="#3D3D3D" stroke-linecap="round" stroke-linejoin="round"/>
<path d="M74.038 77.2799C76.848 77.2799 79.125 74.9999 79.125 72.1899C79.125 69.3799 76.848 67.0999 74.038 67.0999C71.229 67.0999 68.951 69.3799 68.951 72.1899C68.951 74.9999 71.229 77.2799 74.038 77.2799Z" fill="#262626" stroke="#3D3D3D" stroke-linecap="round" stroke-linejoin="round"/>
<path d="M124.56 90.26V85.17C124.56 83.82 124.024 82.5301 123.07 81.5701C122.116 80.6201 120.823 80.0801 119.473 80.0801H109.299C107.95 80.0801 106.656 80.6201 105.702 81.5701C104.748 82.5301 104.212 83.82 104.212 85.17V90.26" fill="#262626"/>
<path d="M124.56 90.26V85.17C124.56 83.82 124.024 82.5301 123.07 81.5701C122.116 80.6201 120.823 80.0801 119.473 80.0801H109.299C107.95 80.0801 106.656 80.6201 105.702 81.5701C104.748 82.5301 104.212 83.82 104.212 85.17V90.26H124.56Z" stroke="#3D3D3D" stroke-linecap="round" stroke-linejoin="round"/>
<path d="M114.387 77.2799C117.196 77.2799 119.474 74.9999 119.474 72.1899C119.474 69.3799 117.196 67.0999 114.387 67.0999C111.577 67.0999 109.3 69.3799 109.3 72.1899C109.3 74.9999 111.577 77.2799 114.387 77.2799Z" fill="#262626" stroke="#3D3D3D" stroke-linecap="round" stroke-linejoin="round"/>
<path d="M164.909 90.26V85.17C164.909 83.82 164.373 82.5301 163.419 81.5701C162.465 80.6201 161.171 80.0801 159.822 80.0801H149.648C148.298 80.0801 147.004 80.6201 146.05 81.5701C145.096 82.5301 144.561 83.82 144.561 85.17V90.26" fill="#262626"/>
<path d="M164.909 90.26V85.17C164.909 83.82 164.373 82.5301 163.419 81.5701C162.465 80.6201 161.171 80.0801 159.822 80.0801H149.648C148.298 80.0801 147.004 80.6201 146.05 81.5701C145.096 82.5301 144.561 83.82 144.561 85.17V90.26H164.909Z" stroke="#3D3D3D" stroke-linecap="round" stroke-linejoin="round"/>
<path d="M154.734 77.2799C157.544 77.2799 159.821 74.9999 159.821 72.1899C159.821 69.3799 157.544 67.0999 154.734 67.0999C151.925 67.0999 149.647 69.3799 149.647 72.1899C149.647 74.9999 151.925 77.2799 154.734 77.2799Z" fill="#262626" stroke="#3D3D3D" stroke-linecap="round" stroke-linejoin="round"/>
<path d="M245.605 90.26V85.17C245.605 83.82 245.069 82.5301 244.115 81.5701C243.161 80.6201 241.867 80.0801 240.518 80.0801H230.344C228.995 80.0801 227.701 80.6201 226.747 81.5701C225.793 82.5301 225.257 83.82 225.257 85.17V90.26" fill="#262626"/>
<path d="M245.605 90.26V85.17C245.605 83.82 245.069 82.5301 244.115 81.5701C243.161 80.6201 241.867 80.0801 240.518 80.0801H230.344C228.995 80.0801 227.701 80.6201 226.747 81.5701C225.793 82.5301 225.257 83.82 225.257 85.17V90.26H245.605Z" stroke="#3D3D3D" stroke-linecap="round" stroke-linejoin="round"/>
<path d="M235.431 77.2799C238.24 77.2799 240.518 74.9999 240.518 72.1899C240.518 69.3799 238.24 67.0999 235.431 67.0999C232.621 67.0999 230.344 69.3799 230.344 72.1899C230.344 74.9999 232.621 77.2799 235.431 77.2799Z" fill="#262626" stroke="#3D3D3D" stroke-linecap="round" stroke-linejoin="round"/>
<path d="M285.953 90.26V85.17C285.953 83.82 285.417 82.5301 284.463 81.5701C283.509 80.6201 282.215 80.0801 280.866 80.0801H270.692C269.343 80.0801 268.049 80.6201 267.095 81.5701C266.141 82.5301 265.605 83.82 265.605 85.17V90.26" fill="#262626"/>
<path d="M285.953 90.26V85.17C285.953 83.82 285.417 82.5301 284.463 81.5701C283.509 80.6201 282.215 80.0801 280.866 80.0801H270.692C269.343 80.0801 268.049 80.6201 267.095 81.5701C266.141 82.5301 265.605 83.82 265.605 85.17V90.26H285.953Z" stroke="#3D3D3D" stroke-linecap="round" stroke-linejoin="round"/>
<path d="M275.78 77.2799C278.589 77.2799 280.867 74.9999 280.867 72.1899C280.867 69.3799 278.589 67.0999 275.78 67.0999C272.97 67.0999 270.693 69.3799 270.693 72.1899C270.693 74.9999 272.97 77.2799 275.78 77.2799Z" fill="#262626" stroke="#3D3D3D" stroke-linecap="round" stroke-linejoin="round"/>
<path d="M205.257 90.26V85.17C205.257 83.82 204.721 82.5301 203.767 81.5701C202.813 80.6201 201.519 80.0801 200.17 80.0801H189.996C188.647 80.0801 187.353 80.6201 186.399 81.5701C185.445 82.5301 184.909 83.82 184.909 85.17V90.26" fill="#262626"/>
<path d="M205.257 90.26V85.17C205.257 83.82 204.721 82.5301 203.767 81.5701C202.813 80.6201 201.519 80.0801 200.17 80.0801H189.996C188.647 80.0801 187.353 80.6201 186.399 81.5701C185.445 82.5301 184.909 83.82 184.909 85.17V90.26H205.257Z" stroke="#3D3D3D" stroke-linecap="round" stroke-linejoin="round"/>
<path d="M195.082 77.2799C197.892 77.2799 200.169 74.9999 200.169 72.1899C200.169 69.3799 197.892 67.0999 195.082 67.0999C192.273 67.0999 189.995 69.3799 189.995 72.1899C189.995 74.9999 192.273 77.2799 195.082 77.2799Z" fill="#262626" stroke="#3D3D3D" stroke-linecap="round" stroke-linejoin="round"/>
<path d="M326.301 90.26V85.17C326.301 83.82 325.765 82.5301 324.811 81.5701C323.857 80.6201 322.563 80.0801 321.214 80.0801H311.04C309.691 80.0801 308.397 80.6201 307.443 81.5701C306.489 82.5301 305.953 83.82 305.953 85.17V90.26" fill="#262626"/>
<path d="M326.301 90.26V85.17C326.301 83.82 325.765 82.5301 324.811 81.5701C323.857 80.6201 322.563 80.0801 321.214 80.0801H311.04C309.691 80.0801 308.397 80.6201 307.443 81.5701C306.489 82.5301 305.953 83.82 305.953 85.17V90.26H326.301Z" stroke="#3D3D3D" stroke-linecap="round" stroke-linejoin="round"/>
<path d="M316.128 77.2799C318.937 77.2799 321.215 74.9999 321.215 72.1899C321.215 69.3799 318.937 67.0999 316.128 67.0999C313.319 67.0999 311.041 69.3799 311.041 72.1899C311.041 74.9999 313.319 77.2799 316.128 77.2799Z" fill="#262626" stroke="#3D3D3D" stroke-linecap="round" stroke-linejoin="round"/>
<path d="M366.649 90.26V85.17C366.649 83.82 366.113 82.5301 365.159 81.5701C364.205 80.6201 362.911 80.0801 361.562 80.0801H351.388C350.039 80.0801 348.745 80.6201 347.791 81.5701C346.837 82.5301 346.301 83.82 346.301 85.17V90.26" fill="#262626"/>
<path d="M366.649 90.26V85.17C366.649 83.82 366.113 82.5301 365.159 81.5701C364.205 80.6201 362.911 80.0801 361.562 80.0801H351.388C350.039 80.0801 348.745 80.6201 347.791 81.5701C346.837 82.5301 346.301 83.82 346.301 85.17V90.26H366.649Z" stroke="#3D3D3D" stroke-linecap="round" stroke-linejoin="round"/>
<path d="M356.476 77.2799C359.286 77.2799 361.563 74.9999 361.563 72.1899C361.563 69.3799 359.286 67.0999 356.476 67.0999C353.667 67.0999 351.389 69.3799 351.389 72.1899C351.389 74.9999 353.667 77.2799 356.476 77.2799Z" fill="#262626" stroke="#3D3D3D" stroke-linecap="round" stroke-linejoin="round"/>
<path d="M179.37 73.6801L197.001 83.15L214.632 73.6801L197.001 50.26L179.37 73.6801Z" fill="#1D1D1D"/>
<path d="M197.001 50.26L179.37 73.6801L197.001 83.15L214.632 73.6801L197.001 50.26ZM197.001 50.26V82.89" stroke="#61DFFF" stroke-linejoin="round"/>
<path d="M179.633 83.6799L188.054 78.4199L197.001 83.1499L205.685 78.4199L214.632 83.6799L197.001 93.4199L179.633 83.6799Z" fill="#1D1D1D" stroke="#61DFFF" stroke-linejoin="round"/>
<path d="M197.001 107.1V93.4199L179.633 83.6799L197.001 107.1Z" fill="#1D1D1D" stroke="#61DFFF" stroke-linejoin="round"/>
<path d="M197 107.1V93.4199L214.631 83.6799L197 107.1Z" fill="#1D1D1D" stroke="#61DFFF" stroke-linejoin="round"/>
<path d="M119.889 14H20.79V145.519H119.889V14Z" fill="url(#paint2_linear_49_18242)"/>
<path d="M278.111 145.52H377.21V14.001H278.111V145.52Z" fill="url(#paint3_linear_49_18242)"/>
<defs>
<linearGradient id="paint0_linear_49_18242" x1="20.79" y1="97.1799" x2="119.889" y2="97.1799" gradientUnits="userSpaceOnUse">
<stop stop-color="#1D1D1D"/>
<stop offset="1" stop-color="#1D1D1D" stop-opacity="0"/>
</linearGradient>
<linearGradient id="paint1_linear_49_18242" x1="377.21" y1="82.6199" x2="278.111" y2="82.6199" gradientUnits="userSpaceOnUse">
<stop stop-color="#1D1D1D"/>
<stop offset="1" stop-color="#1D1D1D" stop-opacity="0"/>
</linearGradient>
<linearGradient id="paint2_linear_49_18242" x1="20.79" y1="87.04" x2="119.889" y2="87.04" gradientUnits="userSpaceOnUse">
<stop stop-color="#1D1D1D"/>
<stop offset="1" stop-color="#1D1D1D" stop-opacity="0"/>
</linearGradient>
<linearGradient id="paint3_linear_49_18242" x1="377.21" y1="72.49" x2="278.111" y2="72.49" gradientUnits="userSpaceOnUse">
<stop stop-color="#1D1D1D"/>
<stop offset="1" stop-color="#1D1D1D" stop-opacity="0"/>
</linearGradient>
</defs>
</svg>
