<svg width="393" height="175" viewBox="0 0 393 175" fill="none" xmlns="http://www.w3.org/2000/svg">
<mask id="mask0_21_18221" style="mask-type:alpha" maskUnits="userSpaceOnUse" x="0" y="0" width="393" height="175">
<path d="M392.059 0.98999H0V174.584H392.059V0.98999Z" fill="#D9D9D9"/>
</mask>
<g mask="url(#mask0_21_18221)">
<path d="M343.78 -62.6801L78.96 143.21L296.42 14.16L284.71 66.83L539.34 -131.832L324.46 -9.19995L343.78 -62.6801Z" fill="#262626" stroke="#3D3D3D"/>
</g>
<path d="M197.41 95.0601L128.21 149.75L185.08 115.52L182.06 129.57L248.59 76.8L192.4 109.32L197.41 95.0601Z" fill="#61DFFF"/>
<path d="M92.2567 86.3934C92.2567 85.6239 91.6329 85 90.8634 85C90.0939 85 89.47 85.6239 89.47 86.3934C89.47 87.163 90.0939 87.7867 90.8634 87.7867C91.6329 87.7867 92.2567 87.163 92.2567 86.3934Z" fill="#3D3D3D"/>
<path d="M262.007 136.123C262.007 135.354 261.383 134.73 260.613 134.73C259.844 134.73 259.22 135.354 259.22 136.123C259.22 136.893 259.844 137.517 260.613 137.517C261.383 137.517 262.007 136.893 262.007 136.123Z" fill="#3D3D3D"/>
<path d="M108.097 74.7734C108.097 74.0039 107.473 73.3801 106.703 73.3801C105.934 73.3801 105.31 74.0039 105.31 74.7734C105.31 75.543 105.934 76.1669 106.703 76.1669C107.473 76.1669 108.097 75.543 108.097 74.7734Z" fill="#3D3D3D"/>
<path d="M266.117 130.744C266.117 129.974 265.493 129.35 264.723 129.35C263.954 129.35 263.33 129.974 263.33 130.744C263.33 131.513 263.954 132.137 264.723 132.137C265.493 132.137 266.117 131.513 266.117 130.744Z" fill="#3D3D3D"/>
<path d="M106.427 65.4534C106.427 64.6838 105.803 64.0601 105.033 64.0601C104.264 64.0601 103.64 64.6838 103.64 65.4534C103.64 66.2229 104.264 66.8468 105.033 66.8468C105.803 66.8468 106.427 66.2229 106.427 65.4534Z" fill="#3D3D3D"/>
<path d="M264.447 121.413C264.447 120.644 263.823 120.02 263.053 120.02C262.284 120.02 261.66 120.644 261.66 121.413C261.66 122.183 262.284 122.807 263.053 122.807C263.823 122.807 264.447 122.183 264.447 121.413Z" fill="#3D3D3D"/>
<path d="M116.087 46.3634C116.087 45.5939 115.463 44.97 114.693 44.97C113.924 44.97 113.3 45.5939 113.3 46.3634C113.3 47.1329 113.924 47.7567 114.693 47.7567C115.463 47.7567 116.087 47.1329 116.087 46.3634Z" fill="#3D3D3D"/>
<path d="M274.107 102.323C274.107 101.554 273.483 100.93 272.713 100.93C271.944 100.93 271.32 101.554 271.32 102.323C271.32 103.093 271.944 103.717 272.713 103.717C273.483 103.717 274.107 103.093 274.107 102.323Z" fill="#3D3D3D"/>
<path d="M122.377 68.2335C122.377 67.464 121.753 66.8401 120.983 66.8401C120.214 66.8401 119.59 67.464 119.59 68.2335C119.59 69.0031 120.214 69.6268 120.983 69.6268C121.753 69.6268 122.377 69.0031 122.377 68.2335Z" fill="#3D3D3D"/>
<path d="M280.387 124.203C280.387 123.434 279.763 122.81 278.993 122.81C278.224 122.81 277.6 123.434 277.6 124.203C277.6 124.973 278.224 125.597 278.993 125.597C279.763 125.597 280.387 124.973 280.387 124.203Z" fill="#3D3D3D"/>
<path d="M153.367 54.7635C153.367 53.994 152.743 53.3701 151.973 53.3701C151.204 53.3701 150.58 53.994 150.58 54.7635C150.58 55.5331 151.204 56.1569 151.973 56.1569C152.743 56.1569 153.367 55.5331 153.367 54.7635Z" fill="#3D3D3D"/>
<path d="M311.387 110.724C311.387 109.954 310.763 109.33 309.993 109.33C309.224 109.33 308.6 109.954 308.6 110.724C308.6 111.493 309.224 112.117 309.993 112.117C310.763 112.117 311.387 111.493 311.387 110.724Z" fill="#3D3D3D"/>
<path d="M102.597 54.7635C102.597 53.994 101.973 53.3701 101.203 53.3701C100.434 53.3701 99.8101 53.994 99.8101 54.7635C99.8101 55.5331 100.434 56.1569 101.203 56.1569C101.973 56.1569 102.597 55.5331 102.597 54.7635Z" fill="#3D3D3D"/>
<path d="M260.607 110.724C260.607 109.954 259.983 109.33 259.213 109.33C258.444 109.33 257.82 109.954 257.82 110.724C257.82 111.493 258.444 112.117 259.213 112.117C259.983 112.117 260.607 111.493 260.607 110.724Z" fill="#3D3D3D"/>
<path d="M49.5908 81.5635C49.5908 80.7939 48.967 80.1702 48.1974 80.1702C47.4279 80.1702 46.8041 80.7939 46.8041 81.5635C46.8041 82.333 47.4279 82.9569 48.1974 82.9569C48.967 82.9569 49.5908 82.333 49.5908 81.5635Z" fill="#3D3D3D"/>
<path d="M207.607 137.523C207.607 136.754 206.983 136.13 206.213 136.13C205.444 136.13 204.82 136.754 204.82 137.523C204.82 138.293 205.444 138.917 206.213 138.917C206.983 138.917 207.607 138.293 207.607 137.523Z" fill="#3D3D3D"/>
<path d="M63.7368 76.1633C63.7368 75.3938 63.113 74.77 62.3434 74.77C61.5739 74.77 60.9501 75.3938 60.9501 76.1633C60.9501 76.9329 61.5739 77.5568 62.3434 77.5568C63.113 77.5568 63.7368 76.9329 63.7368 76.1633Z" fill="#3D3D3D"/>
<path d="M221.757 132.133C221.757 131.364 221.133 130.74 220.363 130.74C219.594 130.74 218.97 131.364 218.97 132.133C218.97 132.903 219.594 133.527 220.363 133.527C221.133 133.527 221.757 132.903 221.757 132.133Z" fill="#3D3D3D"/>
<path d="M173.557 43.5735C173.557 42.8039 172.933 42.1802 172.163 42.1802C171.394 42.1802 170.77 42.8039 170.77 43.5735C170.77 44.343 171.394 44.9669 172.163 44.9669C172.933 44.9669 173.557 44.343 173.557 43.5735Z" fill="#3D3D3D"/>
<path d="M331.577 99.5334C331.577 98.7639 330.953 98.1401 330.183 98.1401C329.414 98.1401 328.79 98.7639 328.79 99.5334C328.79 100.303 329.414 100.927 330.183 100.927C330.953 100.927 331.577 100.303 331.577 99.5334Z" fill="#3D3D3D"/>
<path d="M134.937 65.4534C134.937 64.6838 134.313 64.0601 133.543 64.0601C132.774 64.0601 132.15 64.6838 132.15 65.4534C132.15 66.2229 132.774 66.8468 133.543 66.8468C134.313 66.8468 134.937 66.2229 134.937 65.4534Z" fill="#3D3D3D"/>
<path d="M292.947 121.413C292.947 120.644 292.323 120.02 291.553 120.02C290.784 120.02 290.16 120.644 290.16 121.413C290.16 122.183 290.784 122.807 291.553 122.807C292.323 122.807 292.947 122.183 292.947 121.413Z" fill="#3D3D3D"/>
<path d="M160.757 26.9835C160.757 26.214 160.133 25.5901 159.363 25.5901C158.594 25.5901 157.97 26.214 157.97 26.9835C157.97 27.7531 158.594 28.3768 159.363 28.3768C160.133 28.3768 160.757 27.7531 160.757 26.9835Z" fill="#3D3D3D"/>
<path d="M318.777 82.9534C318.777 82.1838 318.153 81.5601 317.383 81.5601C316.614 81.5601 315.99 82.1838 315.99 82.9534C315.99 83.7229 316.614 84.3468 317.383 84.3468C318.153 84.3468 318.777 83.7229 318.777 82.9534Z" fill="#3D3D3D"/>
<path d="M352.017 124.203C352.017 123.434 351.393 122.81 350.623 122.81C349.854 122.81 349.23 123.434 349.23 124.203C349.23 124.973 349.854 125.597 350.623 125.597C351.393 125.597 352.017 124.973 352.017 124.203Z" fill="#3D3D3D"/>
<path d="M78.0267 24.2034C78.0267 23.4338 77.403 22.8101 76.6334 22.8101C75.8639 22.8101 75.24 23.4338 75.24 24.2034C75.24 24.9729 75.8639 25.5968 76.6334 25.5968C77.403 25.5968 78.0267 24.9729 78.0267 24.2034Z" fill="#3D3D3D"/>
<path d="M39.5278 39.2535C39.5278 38.484 38.904 37.8601 38.1345 37.8601C37.3649 37.8601 36.7411 38.484 36.7411 39.2535C36.7411 40.0231 37.3649 40.6469 38.1345 40.6469C38.904 40.6469 39.5278 40.0231 39.5278 39.2535Z" fill="#3D3D3D"/>
<path d="M297.217 154.303C297.217 153.534 296.593 152.91 295.823 152.91C295.054 152.91 294.43 153.534 294.43 154.303C294.43 155.073 295.054 155.697 295.823 155.697C296.593 155.697 297.217 155.073 297.217 154.303Z" fill="#3D3D3D"/>
<path d="M285.332 154.7H390.06C391.165 154.7 392.06 153.805 392.06 152.7V2.98511C392.06 1.88054 391.165 0.985107 390.06 0.985107H285.332C284.227 0.985107 283.332 1.88054 283.332 2.98511V152.7C283.332 153.805 284.227 154.7 285.332 154.7Z" fill="url(#paint0_linear_21_18221)"/>
<path d="M107.735 0.98999H3.00702C1.90245 0.98999 1.00702 1.88542 1.00702 2.98999V152.705C1.00702 153.81 1.90245 154.705 3.00702 154.705H107.735C108.84 154.705 109.735 153.81 109.735 152.705V2.98999C109.735 1.88542 108.84 0.98999 107.735 0.98999Z" fill="url(#paint1_linear_21_18221)"/>
<defs>
<linearGradient id="paint0_linear_21_18221" x1="392.06" y1="69.3301" x2="283.33" y2="69.3301" gradientUnits="userSpaceOnUse">
<stop stop-color="#1D1D1D"/>
<stop offset="1" stop-color="#1D1D1D" stop-opacity="0"/>
</linearGradient>
<linearGradient id="paint1_linear_21_18221" x1="1.00702" y1="86.35" x2="109.73" y2="86.35" gradientUnits="userSpaceOnUse">
<stop stop-color="#1D1D1D"/>
<stop offset="1" stop-color="#1D1D1D" stop-opacity="0"/>
</linearGradient>
</defs>
</svg>
