<svg width="24" height="17" viewBox="0 0 24 17" fill="none" xmlns="http://www.w3.org/2000/svg">
<path d="M23.1691 4.41429C23.1691 4.41429 22.947 2.84584 22.2627 2.15714C21.3963 1.25072 20.4277 1.24628 19.9833 1.19296C16.802 0.961914 12.0255 0.961914 12.0255 0.961914H12.0167C12.0167 0.961914 7.24021 0.961914 4.05887 1.19296C3.61455 1.24628 2.64593 1.25072 1.7795 2.15714C1.09525 2.84584 0.877531 4.41429 0.877531 4.41429C0.877531 4.41429 0.646484 6.25822 0.646484 8.09771V9.82167C0.646484 11.6612 0.873088 13.5051 0.873088 13.5051C0.873088 13.5051 1.09525 15.0735 1.77506 15.7622C2.64149 16.6687 3.77895 16.6376 4.28547 16.7353C6.10719 16.9086 12.0211 16.9619 12.0211 16.9619C12.0211 16.9619 16.802 16.953 19.9833 16.7264C20.4277 16.6731 21.3963 16.6687 22.2627 15.7622C22.947 15.0735 23.1691 13.5051 23.1691 13.5051C23.1691 13.5051 23.3957 11.6656 23.3957 9.82167V8.09771C23.3957 6.25822 23.1691 4.41429 23.1691 4.41429ZM9.67064 11.9144V5.52065L15.8156 8.72864L9.67064 11.9144Z" fill="#C0C0C0"/>
</svg>
