<svg width="20" height="16" viewBox="0 0 20 16" fill="none" xmlns="http://www.w3.org/2000/svg">
<path d="M6.62634 15.392C13.4907 15.392 17.2463 9.70358 17.2463 4.77207C17.2463 4.61215 17.2427 4.44868 17.2356 4.28876C17.9662 3.76042 18.5967 3.106 19.0974 2.35624C18.417 2.65896 17.6946 2.85667 16.9549 2.94261C17.7338 2.47573 18.317 1.74229 18.5964 0.878244C17.8636 1.31249 17.0623 1.61882 16.2267 1.78409C15.6638 1.18589 14.9194 0.789807 14.1087 0.657085C13.298 0.524363 12.4662 0.662392 11.7419 1.04983C11.0175 1.43727 10.441 2.05254 10.1014 2.80051C9.76176 3.54849 9.67801 4.38751 9.86307 5.18785C8.37939 5.1134 6.92791 4.72797 5.60273 4.05657C4.27755 3.38517 3.10827 2.44277 2.17067 1.29048C1.69413 2.11208 1.54831 3.08431 1.76284 4.00956C1.97737 4.93482 2.53616 5.74367 3.32563 6.27174C2.73294 6.25292 2.15324 6.09335 1.63441 5.8062V5.8524C1.63388 6.71461 1.93196 7.5504 2.47797 8.21769C3.02398 8.88498 3.78424 9.3426 4.6295 9.51274C4.08046 9.66296 3.50423 9.68484 2.94538 9.57671C3.1839 10.3182 3.64796 10.9668 4.27281 11.4318C4.89766 11.8969 5.65211 12.1553 6.43088 12.1709C5.10877 13.2095 3.47557 13.7728 1.79433 13.7701C1.49618 13.7697 1.19832 13.7514 0.902344 13.7154C2.6103 14.8111 4.59711 15.3931 6.62634 15.392Z" fill="#1D1D1D"/>
</svg>
