<svg width="153" height="238" viewBox="0 0 153 238" fill="none" xmlns="http://www.w3.org/2000/svg">
<path d="M3.70947 100.476L75.8944 139.262L148.079 100.476L75.8944 4.58838L3.70947 100.476Z" fill="#1D1D1D"/>
<path d="M75.8944 4.58838L3.70947 100.476L75.8944 139.262L148.079 100.476L75.8944 4.58838ZM75.8944 4.58838V138.184" stroke="#505050" stroke-linejoin="round"/>
<path d="M4.78613 141.417L39.2625 119.869L75.8937 139.262L111.447 119.869L148.079 141.417L75.8937 181.28L4.78613 141.417Z" fill="#1D1D1D" stroke="#505050" stroke-linejoin="round"/>
<path d="M75.8937 237.305V181.281L4.78613 141.417L75.8937 237.305Z" fill="#1D1D1D" stroke="#505050" stroke-linejoin="round"/>
<path d="M75.8937 237.305V181.281L148.079 141.417L75.8937 237.305Z" fill="#1D1D1D" stroke="#505050" stroke-linejoin="round"/>
<rect x="71.6099" y="176.996" width="8.56776" height="8.56775" rx="4.28387" fill="#61DFFF"/>
<rect x="72.1484" y="0.304688" width="8.56776" height="8.56775" rx="4.28387" fill="#61DFFF"/>
<rect x="71.6089" y="78.5107" width="8.56776" height="8.56775" rx="4.28387" fill="#61DFFF"/>
<rect x="143.795" y="98.6042" width="8.56776" height="8.56775" rx="4.28387" fill="#61DFFF"/>
<rect x="102.697" y="191.743" width="8.56776" height="8.56775" rx="4.28387" fill="#61DFFF"/>
<rect x="0.501953" y="137.133" width="8.56776" height="8.56775" rx="4.28387" fill="#61DFFF"/>
</svg>
