<svg width="39" height="54" viewBox="0 0 39 54" fill="none" xmlns="http://www.w3.org/2000/svg">
<path d="M39 22.0126V21.8838C39 20.4943 37.8738 19.3626 36.4788 19.3626H36.3499C35.8009 19.3626 35.2966 19.5363 34.8876 19.8332L22.3546 12.6003C22.3602 12.5386 22.3658 12.4714 22.3658 12.4098V12.2809C22.3658 10.8915 21.2397 9.75973 19.8447 9.75973H19.7158C18.3263 9.75973 17.1946 10.8859 17.1946 12.2809V12.4098C17.1946 12.4714 17.2002 12.5386 17.2058 12.6003L4.67281 19.8332C4.52714 19.7324 4.37587 19.6427 4.20779 19.5699V4.96391C5.10981 4.55492 5.7373 3.6529 5.7373 2.59961C5.7373 1.16534 4.57196 0 3.13769 0C1.70343 0 0.538086 1.16534 0.538086 2.59961C0.538086 3.6529 1.16558 4.56052 2.0676 4.96391V19.5699C1.17678 19.9565 0.549291 20.8473 0.549291 21.8838V22.0126C0.549291 23.0491 1.17678 23.9343 2.0676 24.3265V38.7812C1.17678 39.1678 0.549291 40.0586 0.549291 41.0951V41.224C0.549291 42.6134 1.67541 43.7451 3.07046 43.7451H3.19932C3.74277 43.7451 4.24701 43.5714 4.6616 43.2745L17.1946 50.5075C17.189 50.5691 17.1834 50.6307 17.1834 50.698V50.8268C17.1834 52.2163 18.3095 53.348 19.7046 53.348H19.8335C21.2229 53.348 22.3546 52.2219 22.3546 50.8268V50.698C22.3546 50.6307 22.349 50.5691 22.3434 50.5075L34.882 43.2689C35.2966 43.5658 35.8009 43.7395 36.3443 43.7395H36.4732C37.8626 43.7395 38.9944 42.6134 38.9944 41.2183V41.0895C38.9944 40.053 38.3669 39.1678 37.476 38.7756V24.3209C38.3725 23.9343 39 23.0491 39 22.0126ZM35.3471 38.3778C34.1537 36.4225 32.1256 34.2991 29.6436 32.2374C29.0721 32.6912 28.4895 33.1394 27.9012 33.5764C31.0779 36.1816 33.1228 38.5963 33.9576 40.2995C33.8736 40.546 33.8288 40.815 33.8288 41.0895V41.2183C33.8288 41.28 33.8344 41.3472 33.84 41.4088L21.3069 48.6418C20.9876 48.4121 20.6066 48.2552 20.1976 48.1992C18.6121 45.5772 17.0938 39.6328 17.0938 31.5483C17.0938 30.2933 17.133 29.0943 17.2002 27.9514C16.4831 27.5928 15.794 27.2623 15.1273 26.9653C15.0152 28.4724 14.9592 30.0131 14.9592 31.5483C14.9592 38.0529 15.9564 44.6079 17.8893 48.4345L6.34799 41.7674C8.50499 41.7674 11.3119 41.1007 14.4437 39.8793C14.3429 39.1622 14.2589 38.4283 14.1916 37.6887C10.0625 39.3639 6.88583 39.8793 5.19945 39.5376C4.94173 39.207 4.60558 38.9437 4.219 38.7756V24.3209C4.61118 24.1528 4.94733 23.8839 5.20505 23.5589C7.78785 23.0435 13.8443 24.5226 21.4526 29.0719C22.4667 29.677 23.4247 30.2933 24.3267 30.904C24.971 30.4557 25.5761 30.0075 26.1476 29.5705C24.9878 28.7582 23.7777 27.9794 22.5451 27.2399C16.2982 23.5085 10.253 21.3347 6.35359 21.3291L17.9006 14.662C16.8865 16.6733 16.1301 19.4354 15.6427 22.5449C16.3038 22.8194 16.9817 23.1163 17.6708 23.4357C18.2535 19.4803 19.2172 16.5389 20.2088 14.8973C20.6178 14.8413 20.9988 14.6844 21.3181 14.4547L33.8512 21.6877C33.8456 21.7493 33.84 21.8109 33.84 21.8782V22.007C33.84 22.2872 33.8848 22.5505 33.9688 22.8026C32.6578 25.475 28.3774 29.8843 21.4526 34.0246C20.3769 34.6689 19.3292 35.2516 18.3151 35.7726C18.3712 36.5682 18.444 37.3301 18.5224 38.0585C19.8391 37.403 21.1837 36.6634 22.5395 35.8567C28.0581 32.5567 33.134 28.3436 35.3527 24.7243V38.3778H35.3471Z" fill="white"/>
</svg>
