<svg width="20" height="16" viewBox="0 0 20 16" fill="none" xmlns="http://www.w3.org/2000/svg">
<path d="M16.6084 1.84612C15.3759 1.2677 14.0582 0.847315 12.6806 0.607971C12.5113 0.914822 12.3137 1.32753 12.1774 1.65586C10.7129 1.43494 9.26189 1.43494 7.82437 1.65586C7.68812 1.32753 7.48593 0.914822 7.31526 0.607971C5.93611 0.847315 4.61687 1.26924 3.38448 1.84918C0.898728 5.61731 0.224881 9.29188 0.561804 12.9142C2.21048 14.1493 3.80825 14.8995 5.37906 15.3905C5.7669 14.8551 6.1128 14.2859 6.4108 13.6859C5.84327 13.4696 5.2997 13.2027 4.78607 12.8927C4.92234 12.7915 5.05561 12.6856 5.1844 12.5767C8.31706 14.0465 11.7207 14.0465 14.8159 12.5767C14.9462 12.6856 15.0795 12.7915 15.2142 12.8927C14.6991 13.2042 14.1541 13.4711 13.5865 13.6875C13.8845 14.2859 14.2289 14.8566 14.6182 15.392C16.1905 14.9011 17.7898 14.1508 19.4385 12.9142C19.8338 8.71499 18.7632 5.07418 16.6084 1.84612ZM6.83756 10.6865C5.89718 10.6865 5.126 9.80581 5.126 8.73341C5.126 7.66095 5.8807 6.77877 6.83756 6.77877C7.79444 6.77877 8.56559 7.65941 8.54912 8.73341C8.55066 9.80581 7.79444 10.6865 6.83756 10.6865ZM13.1628 10.6865C12.2224 10.6865 11.4512 9.80581 11.4512 8.73341C11.4512 7.66095 12.2059 6.77877 13.1628 6.77877C14.1196 6.77877 14.8908 7.65941 14.8743 8.73341C14.8743 9.80581 14.1196 10.6865 13.1628 10.6865Z" fill="#1D1D1D"/>
</svg>
