<svg width="398" height="170" viewBox="0 0 398 170" fill="none" xmlns="http://www.w3.org/2000/svg">
<path d="M159.829 105.73L177.609 95.4601V74.9302L159.829 64.6602L142.049 74.9302V95.4601L159.829 105.73Z" fill="#262626"/>
<path d="M159.829 85.1901L177.609 74.9302V54.4001L159.829 44.1301L142.049 54.4001V74.9302L159.829 85.1901Z" fill="#262626"/>
<path d="M177.963 74.9202L195.743 64.6602V44.1301L177.963 33.8601L160.183 44.1301V64.6602L177.963 74.9202Z" fill="#262626"/>
<path d="M159.829 105.73L177.609 95.4601V74.9302L159.829 64.6602L142.049 74.9302V95.4601L159.829 105.73Z" fill="#262626"/>
<path d="M159.829 85.1901L177.609 74.9302V54.4001L159.829 44.1301L142.049 54.4001V74.9302L159.829 85.1901Z" fill="#262626"/>
<path d="M177.963 74.9202L195.743 64.6602V44.1301L177.963 33.8601L160.183 44.1301V64.6602L177.963 74.9202Z" fill="#262626"/>
<path d="M160.183 64.6602L177.963 74.9302V95.4601L160.183 105.73L142.403 95.4601V74.9302M177.786 95.3401L160.183 85.2001L142.572 95.3701M160.188 64.6602V85.1201" stroke="#3D3D3D"/>
<path d="M160.183 44.1301L142.403 54.4001V74.9302M177.786 74.8102L160.183 64.6602" stroke="#3D3D3D"/>
<path d="M160.183 44.1301L177.963 33.8601L195.743 44.1301V64.6602L177.963 74.9202L160.183 64.6602M195.566 64.5402L177.963 54.3901L160.352 64.5602M177.968 33.8501V54.3102" stroke="#3D3D3D"/>
<path d="M161.047 64.1602L160.184 64.6501V66.7101" stroke="#3D3D3D"/>
<path d="M231.657 105.73L213.877 95.4601V74.9302L231.657 64.6602L249.437 74.9302V95.4601L231.657 105.73Z" fill="#262626"/>
<path d="M231.657 85.1901L213.877 74.9302V54.4001L231.657 44.1301L249.437 54.4001V74.9302L231.657 85.1901Z" fill="#262626"/>
<path d="M213.523 74.9202L195.743 64.6602V44.1301L213.523 33.8601L231.303 44.1301V64.6602L213.523 74.9202Z" fill="#262626"/>
<path d="M231.657 105.73L213.877 95.4601V74.9302L231.657 64.6602L249.437 74.9302V95.4601L231.657 105.73Z" fill="#262626"/>
<path d="M231.657 85.1901L213.877 74.9302V54.4001L231.657 44.1301L249.437 54.4001V74.9302L231.657 85.1901Z" fill="#262626"/>
<path d="M213.523 74.9202L195.743 64.6602V44.1301L213.523 33.8601L231.303 44.1301V64.6602L213.523 74.9202Z" fill="#262626"/>
<path d="M231.303 64.6602L213.523 74.9302V95.4601L231.303 105.73L249.083 95.4601V74.9302M213.7 95.3401L231.303 85.2001L248.914 95.3701M231.298 64.6602V85.1201" stroke="#3D3D3D"/>
<path d="M231.303 44.1301L249.083 54.4001V74.9302M213.7 74.8102L231.303 64.6602" stroke="#3D3D3D"/>
<path d="M231.303 44.1301L213.523 33.8601L195.743 44.1301V64.6602L213.523 74.9202L231.303 64.6602M195.92 64.5402L213.523 54.3901L231.134 64.5602M213.518 33.8501V54.3102" stroke="#3D3D3D"/>
<path d="M230.44 64.1602L231.303 64.6501V66.7101" stroke="#3D3D3D"/>
<path d="M318.708 69.4399L332.338 77.3101V93.05L318.708 100.92L305.079 93.05V77.3101L318.708 69.4399Z" fill="#262626"/>
<path d="M332.202 77.4L318.708 85.1801L305.209 77.39M318.712 100.93V85.24M318.708 69.4399L332.338 77.3101V93.05L318.708 100.92L305.079 93.05V77.3101L318.708 69.4399Z" stroke="#3D3D3D"/>
<path d="M358.917 69.4399L372.547 77.3101V93.05L358.917 100.92L345.288 93.05V77.3101L358.917 69.4399Z" fill="#262626"/>
<path d="M372.411 77.4L358.917 85.1801L345.418 77.39M358.921 100.93V85.24M358.917 69.4399L372.547 77.3101V93.05L358.917 100.92L345.288 93.05V77.3101L358.917 69.4399Z" stroke="#3D3D3D"/>
<path d="M278.499 69.4399L292.128 77.3101V93.05L278.499 100.92L264.87 93.05V77.3101L278.499 69.4399Z" fill="#262626"/>
<path d="M291.993 77.4L278.499 85.1801L264.999 77.39M278.503 100.93V85.24M278.499 69.4399L292.128 77.3101V93.05L278.499 100.92L264.87 93.05V77.3101L278.499 69.4399Z" stroke="#3D3D3D"/>
<path d="M72.249 69.4399L85.879 77.3101V93.05L72.249 100.92L58.62 93.05V77.3101L72.249 69.4399Z" fill="#262626"/>
<path d="M85.743 77.4L72.249 85.1801L58.75 77.39M72.253 100.93V85.24M72.249 69.4399L85.879 77.3101V93.05L72.249 100.92L58.62 93.05V77.3101L72.249 69.4399Z" stroke="#3D3D3D"/>
<path d="M112.458 69.4399L126.087 77.3101V93.05L112.458 100.92L98.828 93.05V77.3101L112.458 69.4399Z" fill="#262626"/>
<path d="M125.951 77.4L112.458 85.1801L98.958 77.39M112.461 100.93V85.24M112.458 69.4399L126.087 77.3101V93.05L112.458 100.92L98.828 93.05V77.3101L112.458 69.4399Z" stroke="#3D3D3D"/>
<path d="M32.04 69.4399L45.669 77.3101V93.05L32.04 100.92L18.41 93.05V77.3101L32.04 69.4399Z" fill="#262626"/>
<path d="M45.533 77.4L32.04 85.1801L18.54 77.39M32.043 100.93V85.24M32.04 69.4399L45.669 77.3101V93.05L32.04 100.92L18.41 93.05V77.3101L32.04 69.4399Z" stroke="#3D3D3D"/>
<path d="M159.829 64.6501L177.609 74.9202V95.4501L159.829 105.71L142.049 95.4501V74.9202L159.829 64.6501Z" fill="#262626"/>
<path d="M159.829 85.1899L177.609 95.45V115.98L159.829 126.25L142.049 115.98V95.45L159.829 85.1899Z" fill="#262626"/>
<path d="M177.963 95.45L195.743 105.72V126.25L177.963 136.52L160.183 126.25V105.72L177.963 95.45Z" fill="#262626"/>
<path d="M159.829 64.6501L177.609 74.9202V95.4501L159.829 105.71L142.049 95.4501V74.9202L159.829 64.6501Z" fill="#262626"/>
<path d="M159.829 85.1899L177.609 95.45V115.98L159.829 126.25L142.049 115.98V95.45L159.829 85.1899Z" fill="#262626"/>
<path d="M177.963 95.45L195.743 105.72V126.25L177.963 136.52L160.183 126.25V105.72L177.963 95.45Z" fill="#262626"/>
<path d="M160.183 105.71L177.963 95.4501V74.9202L160.183 64.6501L142.403 74.9202V95.4501M177.786 75.0302L160.183 85.1802L142.572 75.0101M160.188 105.72V85.2601" stroke="#3D3D3D"/>
<path d="M160.183 126.25L142.403 115.98V95.45M177.786 95.5699L160.183 105.71" stroke="#3D3D3D"/>
<path d="M160.183 126.25L177.963 136.52L195.743 126.25V105.72L177.963 95.45L160.183 105.72M195.566 105.83L177.963 115.98L160.352 105.81M177.968 136.52V116.06" stroke="#3D3D3D"/>
<path d="M161.047 106.22L160.184 105.73V103.67" stroke="#3D3D3D"/>
<path d="M231.657 64.6501L213.877 74.9202V95.4501L231.657 105.71L249.437 95.4501V74.9202L231.657 64.6501Z" fill="#262626"/>
<path d="M231.657 85.1899L213.877 95.45V115.98L231.657 126.25L249.437 115.98V95.45L231.657 85.1899Z" fill="#262626"/>
<path d="M213.523 95.45L195.743 105.72V126.25L213.523 136.52L231.303 126.25V105.72L213.523 95.45Z" fill="#262626"/>
<path d="M231.657 64.6501L213.877 74.9202V95.4501L231.657 105.71L249.437 95.4501V74.9202L231.657 64.6501Z" fill="#262626"/>
<path d="M231.657 85.1899L213.877 95.45V115.98L231.657 126.25L249.437 115.98V95.45L231.657 85.1899Z" fill="#262626"/>
<path d="M213.523 95.45L195.743 105.72V126.25L213.523 136.52L231.303 126.25V105.72L213.523 95.45Z" fill="#262626"/>
<path d="M231.303 105.71L213.523 95.4501V74.9202L231.303 64.6501L249.083 74.9202V95.4501M213.7 75.0302L231.303 85.1802L248.914 75.0101M231.298 105.72V85.2601" stroke="#3D3D3D"/>
<path d="M231.303 126.25L249.083 115.98V95.45M213.7 95.5699L231.303 105.71" stroke="#3D3D3D"/>
<path d="M231.303 126.25L213.523 136.52L195.743 126.25V105.72L213.523 95.45L231.303 105.72M195.92 105.83L213.523 115.98L231.134 105.81M213.518 136.52V116.06" stroke="#3D3D3D"/>
<path d="M230.44 106.22L231.303 105.73V103.67" stroke="#3D3D3D"/>
<path d="M213.346 75.0302L195.743 85.1802L178.132 75.0101M195.748 105.72V85.2601M195.743 64.6501L213.523 74.9202V95.4501L195.743 105.71L177.963 95.4501V74.9202L195.743 64.6501Z" stroke="#61DFFF"/>
<path d="M116.661 19.6702H17.929V150.702H116.661V19.6702Z" fill="url(#paint0_linear_49_18241)"/>
<path d="M274.296 150.7H373.028V19.6681H274.296V150.7Z" fill="url(#paint1_linear_49_18241)"/>
<defs>
<linearGradient id="paint0_linear_49_18241" x1="17.929" y1="92.4402" x2="116.66" y2="92.4402" gradientUnits="userSpaceOnUse">
<stop stop-color="#1D1D1D"/>
<stop offset="1" stop-color="#1D1D1D" stop-opacity="0"/>
</linearGradient>
<linearGradient id="paint1_linear_49_18241" x1="373.028" y1="77.9301" x2="274.296" y2="77.9301" gradientUnits="userSpaceOnUse">
<stop stop-color="#1D1D1D"/>
<stop offset="1" stop-color="#1D1D1D" stop-opacity="0"/>
</linearGradient>
</defs>
</svg>
