<svg width="21" height="17" viewBox="0 0 21 17" fill="none" xmlns="http://www.w3.org/2000/svg">
<path d="M17.8498 2.30189C16.516 1.67591 15.0899 1.22094 13.599 0.961914C13.4158 1.294 13.2019 1.74066 13.0545 2.09599C11.4695 1.85689 9.89913 1.85689 8.34338 2.09599C8.19592 1.74066 7.9771 1.294 7.7924 0.961914C6.29982 1.22094 4.87207 1.67757 3.53832 2.30521C0.848127 6.38326 0.118858 10.36 0.483493 14.2803C2.26777 15.617 3.99695 16.4289 5.69695 16.9602C6.11669 16.3808 6.49104 15.7648 6.81355 15.1155C6.19934 14.8814 5.61107 14.5925 5.05519 14.257C5.20267 14.1475 5.3469 14.0329 5.48628 13.915C8.8766 15.5057 12.5602 15.5057 15.91 13.915C16.0509 14.0329 16.1952 14.1475 16.341 14.257C15.7836 14.5941 15.1937 14.883 14.5794 15.1172C14.9019 15.7648 15.2747 16.3824 15.696 16.9619C17.3976 16.4306 19.1284 15.6186 20.9127 14.2803C21.3406 9.73571 20.1818 5.79546 17.8498 2.30189ZM7.27541 11.8694C6.25768 11.8694 5.42307 10.9162 5.42307 9.75564C5.42307 8.59497 6.23985 7.64024 7.27541 7.64024C8.31099 7.64024 9.14557 8.59331 9.12774 9.75564C9.1294 10.9162 8.31099 11.8694 7.27541 11.8694ZM14.1208 11.8694C13.1031 11.8694 12.2685 10.9162 12.2685 9.75564C12.2685 8.59497 13.0853 7.64024 14.1208 7.64024C15.1564 7.64024 15.991 8.59331 15.9732 9.75564C15.9732 10.9162 15.1564 11.8694 14.1208 11.8694Z" fill="#C0C0C0"/>
</svg>
