<svg width="55" height="55" viewBox="0 0 55 55" fill="none" xmlns="http://www.w3.org/2000/svg">
<path d="M47.3183 6.1283L30.1416 18.8857L33.318 11.359L47.3183 6.1283Z" fill="#E2761B" stroke="#E2761B" stroke-width="0.17263" stroke-linecap="round" stroke-linejoin="round"/>
<path d="M7.66504 6.1283L24.7036 19.0065L21.6826 11.359L7.66504 6.1283Z" fill="#E4761B" stroke="#E4761B" stroke-width="0.17263" stroke-linecap="round" stroke-linejoin="round"/>
<path d="M41.1382 35.6998L36.5635 42.7086L46.3516 45.4016L49.1655 35.8552L41.1382 35.6998Z" fill="#E4761B" stroke="#E4761B" stroke-width="0.17263" stroke-linecap="round" stroke-linejoin="round"/>
<path d="M5.85254 35.8552L8.64915 45.4016L18.4373 42.7086L13.8626 35.6998L5.85254 35.8552Z" fill="#E4761B" stroke="#E4761B" stroke-width="0.17263" stroke-linecap="round" stroke-linejoin="round"/>
<path d="M17.8848 23.8574L15.1572 27.9833L24.8763 28.4148L24.531 17.9707L17.8848 23.8574Z" fill="#E4761B" stroke="#E4761B" stroke-width="0.17263" stroke-linecap="round" stroke-linejoin="round"/>
<path d="M37.0986 23.8574L30.366 17.8499L30.1416 28.4148L39.8434 27.9832L37.0986 23.8574Z" fill="#E4761B" stroke="#E4761B" stroke-width="0.17263" stroke-linecap="round" stroke-linejoin="round"/>
<path d="M18.4375 42.7087L24.2724 39.8603L19.2316 35.9243L18.4375 42.7087Z" fill="#E4761B" stroke="#E4761B" stroke-width="0.17263" stroke-linecap="round" stroke-linejoin="round"/>
<path d="M30.7114 39.8603L36.5636 42.7087L35.7522 35.9243L30.7114 39.8603Z" fill="#E4761B" stroke="#E4761B" stroke-width="0.17263" stroke-linecap="round" stroke-linejoin="round"/>
<path d="M36.5631 42.7086L30.7109 39.8602L31.177 43.6754L31.1253 45.2808L36.5631 42.7086Z" fill="#D7C1B3" stroke="#D7C1B3" stroke-width="0.17263" stroke-linecap="round" stroke-linejoin="round"/>
<path d="M18.437 42.7086L23.8749 45.2808L23.8403 43.6754L24.2719 39.8602L18.437 42.7086Z" fill="#D7C1B3" stroke="#D7C1B3" stroke-width="0.17263" stroke-linecap="round" stroke-linejoin="round"/>
<path d="M23.9614 33.4039L19.0933 31.9711L22.5286 30.4001L23.9614 33.4039Z" fill="#233447" stroke="#233447" stroke-width="0.17263" stroke-linecap="round" stroke-linejoin="round"/>
<path d="M31.022 33.4039L32.4548 30.4001L35.9074 31.9711L31.022 33.4039Z" fill="#233447" stroke="#233447" stroke-width="0.17263" stroke-linecap="round" stroke-linejoin="round"/>
<path d="M18.437 42.7086L19.2656 35.6998L13.8623 35.8552L18.437 42.7086Z" fill="#CD6116" stroke="#CD6116" stroke-width="0.17263" stroke-linecap="round" stroke-linejoin="round"/>
<path d="M35.7349 35.6998L36.5635 42.7086L41.1382 35.8552L35.7349 35.6998Z" fill="#CD6116" stroke="#CD6116" stroke-width="0.17263" stroke-linecap="round" stroke-linejoin="round"/>
<path d="M39.8434 27.9833L30.1416 28.4149L31.0393 33.4039L32.4721 30.4001L35.9247 31.971L39.8434 27.9833Z" fill="#CD6116" stroke="#CD6116" stroke-width="0.17263" stroke-linecap="round" stroke-linejoin="round"/>
<path d="M19.0932 31.971L22.5458 30.4001L23.9614 33.4039L24.8763 28.4149L15.1572 27.9833L19.0932 31.971Z" fill="#CD6116" stroke="#CD6116" stroke-width="0.17263" stroke-linecap="round" stroke-linejoin="round"/>
<path d="M15.1572 27.9833L19.2313 35.9243L19.0932 31.971L15.1572 27.9833Z" fill="#E4751F" stroke="#E4751F" stroke-width="0.17263" stroke-linecap="round" stroke-linejoin="round"/>
<path d="M35.9246 31.971L35.752 35.9243L39.8433 27.9833L35.9246 31.971Z" fill="#E4751F" stroke="#E4751F" stroke-width="0.17263" stroke-linecap="round" stroke-linejoin="round"/>
<path d="M24.8764 28.4148L23.9614 33.4038L25.1008 39.2905L25.3597 31.5394L24.8764 28.4148Z" fill="#E4751F" stroke="#E4751F" stroke-width="0.17263" stroke-linecap="round" stroke-linejoin="round"/>
<path d="M30.1414 28.4148L29.6753 31.5221L29.8825 39.2905L31.0391 33.4038L30.1414 28.4148Z" fill="#E4751F" stroke="#E4751F" stroke-width="0.17263" stroke-linecap="round" stroke-linejoin="round"/>
<path d="M31.0394 33.4039L29.8828 39.2906L30.7114 39.8603L35.7522 35.9243L35.9249 31.9711L31.0394 33.4039Z" fill="#F6851B" stroke="#F6851B" stroke-width="0.17263" stroke-linecap="round" stroke-linejoin="round"/>
<path d="M19.0933 31.9711L19.2314 35.9243L24.2722 39.8603L25.1008 39.2906L23.9614 33.4039L19.0933 31.9711Z" fill="#F6851B" stroke="#F6851B" stroke-width="0.17263" stroke-linecap="round" stroke-linejoin="round"/>
<path d="M31.1253 45.2808L31.1771 43.6753L30.7455 43.2956H24.2374L23.8403 43.6753L23.8749 45.2808L18.437 42.7086L20.3359 44.2623L24.1856 46.9381H30.7973L34.6643 44.2623L36.5632 42.7086L31.1253 45.2808Z" fill="#C0AD9E" stroke="#C0AD9E" stroke-width="0.17263" stroke-linecap="round" stroke-linejoin="round"/>
<path d="M30.711 39.8602L29.8824 39.2905H25.1005L24.2719 39.8602L23.8403 43.6753L24.2374 43.2955H30.7455L31.1771 43.6753L30.711 39.8602Z" fill="#161616" stroke="#161616" stroke-width="0.17263" stroke-linecap="round" stroke-linejoin="round"/>
<path d="M48.0435 19.7143L49.5109 12.671L47.3185 6.1283L30.7114 18.4541L37.0987 23.8574L46.1273 26.4987L48.1298 24.1682L47.2667 23.5467L48.6477 22.2865L47.5774 21.4579L48.9584 20.4048L48.0435 19.7143Z" fill="#763D16" stroke="#763D16" stroke-width="0.17263" stroke-linecap="round" stroke-linejoin="round"/>
<path d="M5.48975 12.671L6.9571 19.7143L6.0249 20.4048L7.40594 21.4579L6.3529 22.2865L7.73394 23.5467L6.87079 24.1682L8.85604 26.4987L17.8846 23.8574L24.2719 18.4541L7.66489 6.1283L5.48975 12.671Z" fill="#763D16" stroke="#763D16" stroke-width="0.17263" stroke-linecap="round" stroke-linejoin="round"/>
<path d="M46.127 26.4987L37.0985 23.8574L39.8433 27.9833L35.752 35.9243L41.138 35.8552H49.1653L46.127 26.4987Z" fill="#F6851B" stroke="#F6851B" stroke-width="0.17263" stroke-linecap="round" stroke-linejoin="round"/>
<path d="M17.8849 23.8574L8.85631 26.4987L5.85254 35.8552H13.8626L19.2314 35.9243L15.1573 27.9833L17.8849 23.8574Z" fill="#F6851B" stroke="#F6851B" stroke-width="0.17263" stroke-linecap="round" stroke-linejoin="round"/>
<path d="M30.1415 28.4149L30.7112 18.4541L33.3352 11.359H21.6826L24.2721 18.4541L24.8763 28.4149L25.0834 31.5567L25.1007 39.2906H29.8826L29.9171 31.5567L30.1415 28.4149Z" fill="#F6851B" stroke="#F6851B" stroke-width="0.17263" stroke-linecap="round" stroke-linejoin="round"/>
</svg>
