<svg width="21" height="17" viewBox="0 0 21 17" fill="none" xmlns="http://www.w3.org/2000/svg">
<path d="M7.14985 16.9619C14.5788 16.9619 18.6433 10.8056 18.6433 5.46849C18.6433 5.29542 18.6394 5.1185 18.6317 4.94543C19.4224 4.37364 20.1047 3.66539 20.6467 2.85397C19.9103 3.18159 19.1285 3.39556 18.3279 3.48856C19.1708 2.98329 19.802 2.18952 20.1044 1.25442C19.3114 1.72438 18.4441 2.0559 17.5399 2.23476C16.9306 1.58736 16.125 1.15871 15.2476 1.01507C14.3703 0.87143 13.4701 1.02081 12.6861 1.44011C11.9022 1.85942 11.2782 2.52529 10.9107 3.33479C10.5432 4.14428 10.4525 5.0523 10.6528 5.91847C9.04708 5.8379 7.47622 5.42077 6.04206 4.69415C4.60789 3.96753 3.34243 2.94762 2.32772 1.70055C1.81199 2.58973 1.65418 3.64192 1.88635 4.64327C2.11853 5.64463 2.72327 6.52001 3.57767 7.09151C2.93624 7.07114 2.30885 6.89844 1.74736 6.58768V6.63768C1.74678 7.5708 2.06937 8.47533 2.6603 9.19751C3.25122 9.91968 4.074 10.4149 4.98878 10.5991C4.39459 10.7616 3.77096 10.7853 3.16615 10.6683C3.42428 11.4708 3.92652 12.1727 4.60276 12.676C5.279 13.1793 6.0955 13.459 6.93832 13.4759C5.50746 14.5998 3.73994 15.2095 1.92043 15.2066C1.59775 15.2061 1.27539 15.1863 0.955078 15.1474C2.80351 16.3332 4.95373 16.9631 7.14985 16.9619Z" fill="#C0C0C0"/>
</svg>
